<?xml version="1.0" standalone="no"?>
<!DOCTYPE svg PUBLIC "-//W3C//DTD SVG 20010904//EN"
 "http://www.w3.org/TR/2001/REC-SVG-20010904/DTD/svg10.dtd">
<svg version="1.0" xmlns="http://www.w3.org/2000/svg"
 width="512.000000pt" height="512.000000pt" viewBox="0 0 512.000000 512.000000"
 preserveAspectRatio="xMidYMid meet">
<metadata>
Created by potrace 1.11, written by Peter Selinger 2001-2013
</metadata>
<g transform="translate(0.000000,512.000000) scale(0.100000,-0.100000)"
fill="#000000" stroke="none">
<path d="M2257 5105 c-476 -58 -932 -250 -1307 -551 -105 -84 -295 -273 -380
-378 -265 -327 -461 -756 -534 -1166 -39 -217 -48 -533 -22 -750 111 -918 707
-1707 1559 -2064 625 -262 1349 -262 1974 0 311 130 583 313 823 554 411 410
666 935 736 1510 17 148 17 452 0 600 -49 402 -189 782 -412 1116 -107 161
-184 255 -324 395 -412 413 -935 666 -1517 734 -154 18 -446 18 -596 0z m503
-2154 c326 -105 516 -449 426 -771 -65 -236 -247 -610 -524 -1074 -79 -133
-96 -156 -108 -145 -7 8 -63 98 -123 201 -295 501 -477 894 -511 1108 -21 129
20 297 101 419 85 128 229 230 381 271 97 26 262 22 358 -9z m-113 -2129 c9
-15 90 -187 179 -382 l161 -355 -165 -3 c-91 -1 -167 0 -170 2 -2 3 -13 117
-23 253 -23 306 -27 327 -56 331 -16 2 -26 -3 -32 -20 -5 -13 -22 -144 -39
-291 -16 -147 -32 -270 -34 -273 -3 -2 -79 -3 -170 -2 l-165 3 176 377 176
377 34 1 34 0 -6 -42 -6 -43 20 45 c30 67 52 73 86 22z"/>
<path d="M2438 2751 c-31 -10 -77 -30 -101 -44 -60 -35 -139 -124 -174 -195
-26 -53 -28 -66 -28 -177 0 -114 2 -124 31 -185 85 -178 269 -278 463 -250
119 17 240 96 305 198 94 150 86 356 -22 497 -47 63 -121 119 -192 147 -78 30
-206 34 -282 9z"/>
</g>
</svg>
