<?xml version="1.0" encoding="UTF-8" standalone="no"?>
<svg width="128px" height="128px" viewBox="0 0 128 128" version="1.1" xmlns="http://www.w3.org/2000/svg" xmlns:xlink="http://www.w3.org/1999/xlink">
    <!-- Generator: Sketch 41.2 (35397) - http://www.bohemiancoding.com/sketch -->
    <title>gmi_logo_128</title>
    <desc>Created with Sketch.</desc>
    <defs>
        <circle id="path-1" cx="64" cy="64" r="64"></circle>
        <path d="M52.2395843,6.91649136 C51.9992771,8.87466175 52.3005073,8.218721 52.2395843,10.18386 C51.4972267,10.9329821 50.4501744,12.7206891 49.6897655,13.4512284 C49.2384843,22.6520741 48.8436983,22.9308797 48.3326224,32.1282411 C47.0724195,32.1282411 44.0487502,32.1282416 44.0487502,32.1282416 L44.0487502,37.4119293 C44.0487502,37.4119293 33.99993,37.3480507 30.0433219,37.4119293 C29.6947072,42.071585 30.3761425,47.6925598 30.0433226,52.3522156 L25.0859984,52.3522156 C24.9957421,53.929437 24.9325628,55.5136271 24.9178961,57.0978171 C24.361692,57.0943328 23.1713527,57.2104768 22.6128922,57.2104768 C22.9806864,52.9468685 22.6128922,43.9466682 22.6128922,43.9466682 C22.6128922,43.9466682 21.7295943,43.7994476 20.3678532,43.5718074 C20.3960583,41.9318687 20.4784171,40.2988986 20.5528785,38.6601214 C14.3545309,38.6647671 6.32786045,38.6531532 0.125000037,38.6601218 C-0.00474331428,40.3430334 0.125000037,85.333332 0.125000037,85.333332 L128.124999,85.333332 L128.124999,35.3744353 L123.022964,30.7124576 L119.638355,35.3744357 L119.638355,48.3031594 L115.142551,48.3031594 C115.142551,48.3031594 115.420089,36.4197236 115.142551,30.7194269 C110.230355,30.725234 105.319287,30.7380098 100.405963,30.7124583 C100.495091,36.5962609 100.240121,31.5304495 100.405967,37.4119293 C99.3725329,37.8695326 92.5604381,37.4119293 90.5116213,37.4119293 C90.3581857,28.1541735 90.6661857,28.8588166 90.5116219,19.6010608 L66.8611012,19.6010608 C66.8701268,14.8752036 66.8328984,18.1747628 66.8611035,13.4512284 C66.0600793,12.9703965 64.8811107,10.6403018 64.0654199,10.18386 C64.0654199,7.78899203 64.0654258,13.8078496 64.0654199,6.91649137 C62.8447042,4.33347182 53.6001972,3.83754135 52.2395843,6.91649136 Z" id="path-3"></path>
        <mask id="mask-4" maskContentUnits="userSpaceOnUse" maskUnits="objectBoundingBox" x="-0.5" y="-0.5" width="129.057663" height="81.544136">
            <rect x="-0.432663675" y="4.28919592" width="129.057663" height="81.544136" fill="white"></rect>
            <use xlink:href="#path-3" fill="black"></use>
        </mask>
        <mask id="mask-5" maskContentUnits="userSpaceOnUse" maskUnits="objectBoundingBox" x="-1" y="-1" width="130.057663" height="82.544136">
            <rect x="-0.932663675" y="3.78919592" width="130.057663" height="82.544136" fill="white"></rect>
            <use xlink:href="#path-3" fill="black"></use>
        </mask>
        <circle id="path-6" cx="64.205" cy="69.7038596" r="10.8912281"></circle>
    </defs>
    <g id="Desktop" stroke="none" stroke-width="1" fill="none" fill-rule="evenodd">
        <g id="gmi_logo_128" transform="translate(-1.000000, -1.000000)">
            <g id="gmi_logo" transform="translate(1.000000, 1.000000)">
                <mask id="mask-2" fill="white">
                    <use xlink:href="#path-1"></use>
                </mask>
                <use id="Mask" fill="#D8D8D8" xlink:href="#path-1"></use>
                <g id="LoadingScreen" mask="url(#mask-2)">
                    <g transform="translate(-0.125000, 0.000000)">
                        <polygon id="Polygon-2" stroke="none" fill="#D8D8D8" fill-rule="evenodd" points="30.6204386 0 93.7895614 0 124.285 30.4954386 124.285 93.6645614 93.7895614 124.16 30.6204386 124.16 0.125 93.6645614 0.125 30.4954386"></polygon>
                        <rect id="Rectangle-243" stroke="none" fill="#3498DB" fill-rule="evenodd" x="0.125" y="0" width="128" height="85.3333333"></rect>
                        <g id="path562" stroke="none" fill="none">
                            <use fill-opacity="0.3" fill="#000000" fill-rule="evenodd" xlink:href="#path-3"></use>
                            <use stroke-opacity="0.2" stroke="#FFFFFF" mask="url(#mask-4)" stroke-width="1" stroke-linecap="round" stroke-linejoin="bevel" xlink:href="#path-3"></use>
                            <use stroke-opacity="0.2" stroke="#FFFFFF" mask="url(#mask-5)" stroke-width="2" stroke-linecap="round" stroke-linejoin="bevel" xlink:href="#path-3"></use>
                        </g>
                        <circle id="Oval-52" stroke="none" fill="#3498DB" fill-rule="evenodd" cx="64.08" cy="69.7038596" r="20.6933333"></circle>
                        <rect id="Rectangle-242" stroke="none" fill="#2ECC71" fill-rule="evenodd" x="0.125" y="85.3333333" width="128" height="42.6666667"></rect>
                        <path d="M64.205,104.555789 C64.205,104.555789 80.5418421,78.7264484 80.5418421,69.7038596 C80.5418421,60.6812709 73.2275888,53.3670175 64.205,53.3670175 C55.1824112,53.3670175 47.8681579,60.6812709 47.8681579,69.7038596 C47.8681579,78.7264484 64.205,104.555789 64.205,104.555789 Z" id="Oval-70" stroke="none" fill="#FFFFFF" fill-rule="evenodd" transform="translate(64.205000, 78.961404) scale(-1, 1) translate(-64.205000, -78.961404) "></path>
                        <path d="M63.4011274,113.485635 C63.4800922,112.686436 63.5992305,112.110552 63.7527899,111.757965 C63.8974679,111.405378 64.1047908,111.229087 64.3813688,111.229087 C64.6579469,111.229087 64.8600693,111.405378 64.9942724,111.757965 C65.1372582,112.110552 65.2389142,112.686436 65.2931815,113.485635 L66.2502511,126.072941 L74.9680752,126.072941 L68.4350372,111.687448 C68.0276073,110.653192 67.6464794,109.806994 67.3006724,109.148831 C66.9749681,108.490668 66.6802857,107.961795 66.4154987,107.562196 C66.1688477,107.162597 65.949893,106.886408 65.7517482,106.73362 C65.5623448,106.580832 65.3802506,106.504439 65.1989313,106.504439 C64.6187098,106.504439 64.1718454,107.444658 63.7426613,109.325124 L63.94575,106.998059 L62.2255023,106.998059 L53.2703796,126.072941 L61.9882037,126.072941 L63.4011274,113.485635 Z" id="n" stroke="none" fill="#FFFFFF" fill-rule="evenodd"></path>
                        <mask id="mask-7" fill="white">
                            <use xlink:href="#path-6"></use>
                        </mask>
                        <use id="Oval-71" stroke="none" fill="#3498DB" fill-rule="evenodd" xlink:href="#path-6"></use>
                    </g>
                </g>
            </g>
        </g>
    </g>
</svg>