<?xml version="1.0" encoding="UTF-8" standalone="no"?>
<svg width="1024px" height="1024px" viewBox="0 0 1024 1024" version="1.1" xmlns="http://www.w3.org/2000/svg" xmlns:xlink="http://www.w3.org/1999/xlink">
    <!-- Generator: Sketch 41.1 (35376) - http://www.bohemiancoding.com/sketch -->
    <title>gmi_logo_text</title>
    <desc>Created with Sketch.</desc>
    <defs>
        <circle id="path-1" cx="512" cy="512" r="512"></circle>
        <path d="M417.916675,55.3319308 C415.994216,70.997294 418.404058,65.749768 417.916675,81.4708797 C411.977814,87.4638567 403.601395,101.765513 397.518124,107.609827 C393.907874,181.216593 390.749587,183.447037 386.660979,257.025928 C376.579356,257.025928 352.390002,257.025933 352.390002,257.025933 L352.390002,299.295434 C352.390002,299.295434 271.99944,298.784405 240.346575,299.295434 C237.557657,336.57268 243.00914,381.540478 240.346581,418.817724 L200.687987,418.817724 C199.965937,431.435496 199.460502,444.109017 199.343169,456.782537 C194.893536,456.754663 185.370821,457.683814 180.903137,457.683814 C183.845491,423.574948 180.903137,351.573346 180.903137,351.573346 C180.903137,351.573346 173.836754,350.395581 162.942825,348.574459 C163.168466,335.45495 163.827337,322.391189 164.423028,309.280971 C114.836247,309.318137 50.6228836,309.225226 1.0000003,309.280975 C-0.0379465142,322.744267 1.0000003,682.666656 1.0000003,682.666656 L1024.99999,682.666656 L1024.99999,282.995483 L984.183714,245.69966 L957.106841,282.995486 L957.106841,386.425275 L921.14041,386.425275 C921.14041,386.425275 923.360712,291.357789 921.140408,245.755415 C881.842839,245.801872 842.554296,245.904078 803.247701,245.699666 C803.960726,292.770087 801.920969,252.243596 803.247735,299.295434 C794.980263,302.956261 740.483504,299.295434 724.09297,299.295434 C722.865486,225.233388 725.329485,230.870533 724.092975,156.808487 L534.888809,156.808487 C534.961014,119.001629 534.663187,145.398102 534.888828,107.609827 C528.480635,103.763172 519.048886,85.1224146 512.523359,81.4708797 C512.523359,62.3119362 512.523407,110.462797 512.523359,55.3319309 C502.757634,34.6677746 428.801578,30.7003308 417.916675,55.3319308 Z" id="path-3"></path>
        <mask id="mask-4" maskContentUnits="userSpaceOnUse" maskUnits="objectBoundingBox" x="-2" y="-2" width="1028.4613" height="648.353088">
            <rect x="-1.4613094" y="36.3135673" width="1028.4613" height="648.353088" fill="white"></rect>
            <use xlink:href="#path-3" fill="black"></use>
        </mask>
        <mask id="mask-5" maskContentUnits="userSpaceOnUse" maskUnits="objectBoundingBox" x="-4" y="-4" width="1032.4613" height="652.353088">
            <rect x="-3.4613094" y="34.3135673" width="1032.4613" height="652.353088" fill="white"></rect>
            <use xlink:href="#path-3" fill="black"></use>
        </mask>
        <path d="M497.64,836.446316 C497.64,836.446316 628.334737,629.811587 628.334737,557.630877 C628.334737,485.450167 569.82071,426.93614 497.64,426.93614 C425.45929,426.93614 366.945263,485.450167 366.945263,557.630877 C366.945263,629.811587 497.64,836.446316 497.64,836.446316 Z" id="path-6"></path>
        <mask id="mask-7" maskContentUnits="userSpaceOnUse" maskUnits="objectBoundingBox" x="-4" y="-4" width="269.389474" height="417.510175">
            <rect x="362.945263" y="422.93614" width="269.389474" height="417.510175" fill="white"></rect>
            <use xlink:href="#path-6" fill="black"></use>
        </mask>
        <ellipse id="path-8" cx="513.64" cy="557.630877" rx="87.1298246" ry="87.1298246"></ellipse>
    </defs>
    <g id="Desktop" stroke="none" stroke-width="1" fill="none" fill-rule="evenodd">
        <g id="gmi_logo_text">
            <g>
                <mask id="mask-2" fill="white">
                    <use xlink:href="#path-1"></use>
                </mask>
                <use id="Mask" fill="#D8D8D8" xlink:href="#path-1"></use>
                <g id="LoadingScreen" mask="url(#mask-2)">
                    <g transform="translate(-1.000000, 0.000000)">
                        <polygon id="Polygon-2" stroke="none" fill="#D8D8D8" fill-rule="evenodd" points="244.963509 0 750.316491 0 994.28 243.963509 994.28 749.316491 750.316491 993.28 244.963509 993.28 1 749.316491 1 243.963509"></polygon>
                        <rect id="Rectangle-243" stroke="none" fill="#3498DB" fill-rule="evenodd" x="1" y="0" width="1024" height="682.666667"></rect>
                        <g id="path562" stroke="none" fill="none">
                            <use fill-opacity="0.3" fill="#000000" fill-rule="evenodd" xlink:href="#path-3"></use>
                            <use stroke-opacity="0.2" stroke="#FFFFFF" mask="url(#mask-4)" stroke-width="4" stroke-linecap="round" stroke-linejoin="bevel" xlink:href="#path-3"></use>
                            <use stroke-opacity="0.2" stroke="#FFFFFF" mask="url(#mask-5)" stroke-width="8" stroke-linecap="round" stroke-linejoin="bevel" xlink:href="#path-3"></use>
                        </g>
                        <g id="Oval-72" stroke="none" fill="none">
                            <use fill="#FFFFFF" fill-rule="evenodd" xlink:href="#path-6"></use>
                            <use stroke="#3498DB" mask="url(#mask-7)" stroke-width="8" xlink:href="#path-6"></use>
                        </g>
                        <ellipse id="Oval-52" stroke="none" fill="#3498DB" fill-rule="evenodd" cx="512.64" cy="557.630877" rx="165.546667" ry="165.546667"></ellipse>
                        <rect id="Rectangle-242" stroke="none" fill="#2ECC71" fill-rule="evenodd" x="1" y="682.666667" width="1024" height="341.333333"></rect>
                        <path d="M513.64,836.446316 C513.64,836.446316 644.334737,629.811587 644.334737,557.630877 C644.334737,485.450167 585.82071,426.93614 513.64,426.93614 C441.45929,426.93614 382.945263,485.450167 382.945263,557.630877 C382.945263,629.811587 513.64,836.446316 513.64,836.446316 Z" id="Oval-70" stroke="none" fill="#FFFFFF" fill-rule="evenodd" transform="translate(513.640000, 631.691228) scale(-1, 1) translate(-513.640000, -631.691228) "></path>
                        <text id="GuideMe-2" stroke="#3498DB" stroke-width="3" fill="none" font-family="HelveticaNeue-CondensedBlack, Helvetica Neue" font-size="108" font-style="condensed" font-weight="700" letter-spacing="5.44694778e-08">
                            <tspan x="451.649123" y="531.93614" fill="#2ECC71">GuideMe</tspan>
                        </text>
                        <path d="M507.209019,907.885076 C507.840738,901.491492 508.793844,896.884419 510.022319,894.06372 C511.179743,891.243021 512.838326,889.832692 515.050951,889.832692 C517.263575,889.832692 518.880555,891.243021 519.954179,894.06372 C521.098065,896.884419 521.911313,901.491492 522.345452,907.885076 L530.002008,1008.58353 L599.744602,1008.58353 L547.480297,893.499583 C544.220858,885.225532 541.171835,878.455956 538.405379,873.190651 C535.799745,867.925346 533.442286,863.694361 531.323989,860.497569 C529.350782,857.300776 527.599144,855.091262 526.013986,853.868959 C524.498759,852.646656 523.042005,852.035514 521.591451,852.035514 C516.949678,852.035514 513.374763,859.557265 509.94129,874.600993 L511.566,855.984473 L497.804018,855.984473 L426.163036,1008.58353 L495.90563,1008.58353 L507.209019,907.885076 Z" id="n" stroke="none" fill="#FFFFFF" fill-rule="evenodd"></path>
                        <mask id="mask-9" fill="white">
                            <use xlink:href="#path-8"></use>
                        </mask>
                        <use id="Oval-71" stroke="none" fill="#3498DB" fill-rule="evenodd" xlink:href="#path-8"></use>
                    </g>
                </g>
            </g>
        </g>
    </g>
</svg>